<defs>
<font horiz-adv-x="375" ><font-face
    font-family="colabthi"
    units-per-em="1000"
    panose-1="2 0 5 6 5 0 0 2 0 4"
    ascent="835"
    descent="-197"
    alphabetic="0" />
<missing-glyph horiz-adv-x="1000" />
<glyph unicode=" " glyph-name="space" horiz-adv-x="230" />
<glyph unicode="!" glyph-name="exclam" horiz-adv-x="230" d="M136 164H94V647H136V164ZM145 0H86V71H145V0Z" />
<glyph unicode="&quot;" glyph-name="quotedbl" horiz-adv-x="340" d="M260 647L252 430H219L211 647H260ZM129 647L121 430H88L80 647H129Z" />
<glyph unicode="#" glyph-name="numbersign" horiz-adv-x="460" d="M449 399H346L318 240H410V201H311L276 0H232L267 201H141L106 0H62L97 201H11V240H104L132 399H50V438H139L176 647H220L183 438H309L346 647H390L353 438H449V399ZM302 399H176L148 240H274L302 399Z" />
<glyph unicode="$" glyph-name="dollar" horiz-adv-x="460" d="M413 168Q413 86 369 42T251 -13V-98H207V-16Q148 -16 47 12L65 54Q98 41 114 36T155 26T207 21V319Q169 333 147 344T99 375T60 424T47 492Q47 568 90 608T207 655V746H251V657Q318 655 387 632L369
590Q366 591 358 595T346 600T336 604T324 608T312 612T299 615T285 617T269 619T251 620V355Q288 341 311 329T361 296T400 243T413 168ZM207 372V618Q95 602 95 492Q95 446 123 420T207 372ZM365 166Q365 220 336 250T251 302V27Q300 38 332 72T365 166Z" />
<glyph unicode="%" glyph-name="percent" horiz-adv-x="690" d="M631 167Q631 138 630 118T621 71T602 29T567 2T512 -10Q473 -10 448 5T413 50T399 105T396 167Q396 338 513 338Q552 338 577 324T613 281T627 229T631 167ZM294 486Q294 457 293 437T284 390T265
348T230 321T175 309Q136 309 111 324T76 369T62 424T59 486Q59 657 176 657Q215 657 240 643T276 600T290 548T294 486ZM547 629L185 0H139L501 629H547ZM598 133T598 167T596 221T587 265T561 300T513 312Q430 312 430 167Q430 135 432 113T442 66T467 29T512
16Q541 16 559 28T585 64T595 111ZM261 452T261 486T259 540T250 584T224 619T176 631Q93 631 93 486Q93 454 95 432T105 385T130 348T175 335Q204 335 222 347T248 383T258 430Z" />
<glyph unicode="&amp;" glyph-name="ampersand" horiz-adv-x="460" d="M414 0H381L369 58Q322 -13 241 -13Q153 -13 100 35T46 169Q46 299 170 357Q166 360 146 374T117 396T93 420T73 454T66 495Q66 660 213 660T360 507Q360 448 329 412T221 343Q156 315 123
279T90 171Q90 112 127 66T241 20Q276 20 311 44T365 104V248H254V281H406V140Q406 116 414 0ZM316 508Q316 567 292 597T210 627Q111 627 111 496Q111 481 116 466T128 441T146 419T166 402T187 387T205 374Q254 394 285 424T316 508Z" />
<glyph unicode="&apos;" glyph-name="quotesingle" horiz-adv-x="230" d="M140 647L132 430H99L91 647H140Z" />
<glyph unicode="(" glyph-name="parenleft" horiz-adv-x="255" d="M203 -128H165Q102 -19 81 60T59 254Q59 384 81 465T160 647H198Q145 550 126 466T107 254Q107 142 126 60T203 -128Z" />
<glyph unicode=")" glyph-name="parenright" horiz-adv-x="255" d="M196 254Q196 140 175 61T90 -128H52Q110 -23 129 59T148 254Q148 382 129 466T57 647H95Q151 546 173 465T196 254Z" />
<glyph unicode="*" glyph-name="asterisk" horiz-adv-x="370" d="M355 505L216 471L215 466L305 351L267 324L189 444H183L104 324L65 352L156 466L154 471L15 506L31 553L164 502L169 506L162 647H210L202 504L207 501L339 552L355 505Z" />
<glyph unicode="+" glyph-name="plus" horiz-adv-x="460" d="M433 191H253V0H207V191H27V231H207V421H253V231H433V191Z" />
<glyph unicode="," glyph-name="comma" horiz-adv-x="230" d="M143 75L62 -103H28L88 75H143Z" />
<glyph unicode="-" glyph-name="hyphen" horiz-adv-x="315" d="M285 232H30V272H285V232Z" />
<glyph unicode="." glyph-name="period" horiz-adv-x="230" d="M143 0H87V69H143V0Z" />
<glyph unicode="/" glyph-name="slash" horiz-adv-x="230" d="M244 658L30 -10H-14L200 658H244Z" />
<glyph unicode="0" glyph-name="zero" horiz-adv-x="460" d="M423 308Q423 264 421 233T414 161T395 92T361 38T307 -1T228 -14Q190 -14 160 -3T110 24T76 68T55 121T43 182T38 245T37 308Q37 355 40 393T56 475T88 548T144 598T229 618Q282 618 319 599T376 552T407
480T420 398T423 308ZM375 308Q375 358 373 391T363 463T340 526T297 566T229 582Q85 582 85 308Q85 267 86 238T92 172T107 112T132 66T171 33T228 22Q263 22 289 33T331 67T356 113T369 175T374 239T375 308Z" />
<glyph unicode="1" glyph-name="one" horiz-adv-x="460" d="M291 -1H245V547L129 445L111 487L249 607H291V-1Z" />
<glyph unicode="2" glyph-name="two" horiz-adv-x="460" d="M406 0H51L33 40Q51 59 98 104T182 187T259 271T321 363T344 445Q344 516 310 549T206 583Q197 583 189 583T171 580T156 577T139 573T125 568T110 561T95 555T78 547T62 539L44 581Q125 619 208 619Q294
619 343 577T392 449Q392 406 371 360T311 266T238 184T156 103T89 39H406V0Z" />
<glyph unicode="3" glyph-name="three" horiz-adv-x="460" d="M384 152Q384 65 328 26T183 -14Q131 -14 104 -10T33 9L51 51Q59 48 76 42T100 34T122 28T152 23T186 22Q226 22 257 32T312 74T336 153Q336 238 286 270T144 302V336Q227 336 274 364T321 465Q321
532 288 557T196 583Q150 583 62 540L44 582Q118 619 196 619Q276 619 322 582T369 467Q369 399 332 363T237 320Q299 310 341 271T384 152Z" />
<glyph unicode="4" glyph-name="four" horiz-adv-x="460" d="M440 171H344V0H298V171H56L38 213L306 607H344V208H440V171ZM298 208V536L76 208H298Z" />
<glyph unicode="5" glyph-name="five" horiz-adv-x="460" d="M411 188Q411 92 359 39T210 -14Q121 -14 57 7L75 49Q142 22 211 22Q284 22 324 65T365 190Q365 265 331 307T236 349Q187 349 111 311L69 329V607H386V571H115V360Q125 362 146 369T188 380T235 385Q323
385 367 332T411 188Z" />
<glyph unicode="6" glyph-name="six" horiz-adv-x="460" d="M416 196Q416 110 368 48T238 -14Q180 -14 140 10T80 80T53 173T45 283Q45 367 68 441T145 567T273 619Q329 619 389 603L371 561Q310 583 278 583Q193 583 140 501T87 281Q110 331 148 363T238 395Q323
395 369 341T416 196ZM368 196Q368 359 240 359Q209 359 183 347T139 316T113 280T96 246Q96 124 130 73T239 22Q298 22 333 70T368 196Z" />
<glyph unicode="7" glyph-name="seven" horiz-adv-x="460" d="M399 565L165 0H111L358 569H39V607H381L399 565Z" />
<glyph unicode="8" glyph-name="eight" horiz-adv-x="460" d="M424 145Q424 96 405 63T354 14T292 -8T227 -14Q194 -14 164 -8T104 15T55 65T36 145Q36 270 183 320Q182 320 171 326T152 335T132 346T110 362T90 381T73 405T62 433T57 466Q57 542 104 580T232
619Q409 619 409 467Q409 434 394 406T355 361T312 333T275 319Q424 268 424 145ZM364 467Q364 584 232 584Q102 584 102 466Q102 419 142 384T228 336Q275 345 319 382T364 467ZM378 145Q378 256 230 301Q82 259 82 145Q82 83 122 52T227 21Q293 21 335 51T378
145Z" />
<glyph unicode="9" glyph-name="nine" horiz-adv-x="460" d="M415 322Q415 238 392 164T315 38T187 -14Q131 -14 71 2L89 44Q149 22 182 22Q267 22 320 104T373 324Q350 274 312 242T222 210Q137 210 91 264T44 409Q44 495 92 557T222 619Q280 619 320 595T380
525T407 432T415 322ZM364 359Q364 481 330 532T221 583Q162 583 127 535T92 409Q92 246 220 246Q251 246 277 258T321 289T347 325T364 359Z" />
<glyph unicode=":" glyph-name="colon" horiz-adv-x="230" d="M143 383H87V452H143V383ZM143 0H87V69H143V0Z" />
<glyph unicode=";" glyph-name="semicolon" horiz-adv-x="230" d="M139 383H83V452H139V383ZM143 75L62 -103H28L83 75H143Z" />
<glyph unicode="&lt;" glyph-name="less" horiz-adv-x="460" d="M430 12L30 191V249L430 428V379L73 219L430 61V12Z" />
<glyph unicode="=" glyph-name="equal" horiz-adv-x="460" d="M430 284H30V328H430V284ZM430 112H30V155H430V112Z" />
<glyph unicode="&gt;" glyph-name="greater" horiz-adv-x="460" d="M430 191L30 12V61L387 221L30 379V428L430 249V191Z" />
<glyph unicode="?" glyph-name="question" horiz-adv-x="385" d="M354 510Q354 477 338 449T298 401T251 361T211 314T194 256V158H148V261Q148 299 164 329T204 379T251 417T291 459T308 510Q308 569 279 594T187 620Q139 620 69 585L51 627Q137 657 187 657Q354
657 354 510ZM201 0H142V71H201V0Z" />
<glyph unicode="@" glyph-name="at" horiz-adv-x="810" d="M727 382Q727 256 650 191T444 125Q358 125 301 176T243 319Q243 399 296 455T430 512Q466 512 504 497V283L546 290L561 254L467 239V474Q452 479 431 479Q365 479 326 437T287 322Q287 242 329 200T446
158Q556 158 619 213T683 381Q683 500 612 562T434 624Q296 624 212 545T127 320Q127 173 210 95T430 17Q493 17 537 25T642 55L657 19Q565 -16 427 -16Q267 -16 175 74T83 320T181 566T434 657Q511 657 576 627T684 533T727 382Z" />
<glyph unicode="A" glyph-name="A" horiz-adv-x="608" d="M573 0H521L446 203H162L82 0H35L298 647H329L573 0ZM434 238L311 579L176 238H434Z" />
<glyph unicode="B" glyph-name="B" horiz-adv-x="557" d="M497 181Q497 127 481 91T434 35T367 8T282 0H100V647H249Q302 647 338 641T406 617T452 567T467 482Q467 433 439 396T364 339Q497 307 497 181ZM419 481Q419 561 381 585T249 610H146V351H263Q332 351
375 382T419 481ZM448 181Q448 260 400 287T265 315H146V37H276Q363 37 405 65T448 181Z" />
<glyph unicode="C" glyph-name="C" horiz-adv-x="527" d="M485 12Q405 -16 321 -16Q230 -16 172 29T89 148T65 323Q65 379 73 427T99 518T147 591T222 639T327 657Q408 657 478 634L460 592Q395 620 327 620Q113 620 113 324Q113 261 123 209T156 114T221 46T321
21Q385 21 467 54L485 12Z" />
<glyph unicode="D" glyph-name="D" horiz-adv-x="605" d="M540 326Q540 151 469 76T231 0H100V647H231Q403 647 471 575T540 326ZM492 325Q492 480 436 545T231 610H146V37H240Q371 37 431 109T492 325Z" />
<glyph unicode="E" glyph-name="E" horiz-adv-x="513" d="M453 0H100V647H444V610H146V353H423V316H146V37H453V0Z" />
<glyph unicode="F" glyph-name="F" horiz-adv-x="502" d="M444 609H146V349H432V313H146V0H100V647H444V609Z" />
<glyph unicode="G" glyph-name="G" horiz-adv-x="576" d="M511 39Q469 19 447 10T391 -8T323 -16Q65 -16 65 324Q65 657 332 657Q387 657 475 634L457 592Q393 620 333 620Q218 620 166 545T113 324Q113 21 326 21Q381 21 469 68V269H326V306H511V39Z" />
<glyph unicode="H" glyph-name="H" horiz-adv-x="624" d="M524 0H478V315H146V0H100V647H146V353H478V647H524V0Z" />
<glyph unicode="I" glyph-name="I" horiz-adv-x="222" d="M134 0H88V647H134V0Z" />
<glyph unicode="J" glyph-name="J" d="M275 204Q275 163 267 130T248 73T216 31T179 2T134 -18T91 -31T47 -41Q38 -43 33 -44L20 0Q27 1 47 5T77 11T104 18T132 27T157 40T181 57T200 80T216 110T225 147T229 194V647H275V204Z" />
<glyph unicode="K" glyph-name="K" horiz-adv-x="553" d="M536 0H474L146 321V0H100V647H146V342L457 647H506L190 339L536 0Z" />
<glyph unicode="L" glyph-name="L" horiz-adv-x="464" d="M455 0H100V647H146V40H455V0Z" />
<glyph unicode="M" glyph-name="M" horiz-adv-x="793" d="M693 0H649V597L409 0H384L140 597V0H100V647H163L399 68L635 647H693V0Z" />
<glyph unicode="N" glyph-name="N" horiz-adv-x="647" d="M547 0H483L140 593V0H100V647H162L503 54V647H547V0Z" />
<glyph unicode="O" glyph-name="O" horiz-adv-x="657" d="M592 321Q592 165 530 75T330 -16Q186 -16 126 73T65 321Q65 476 128 566T331 657Q405 657 457 632T538 560T579 455T592 321ZM544 321Q544 464 497 542T330 620Q267 620 224 598T157 534T123 441T113
321Q113 181 161 101T330 21Q392 21 435 43T502 108T534 202T544 321Z" />
<glyph unicode="P" glyph-name="P" horiz-adv-x="532" d="M476 468Q476 283 278 283H146V0H100V647H267Q370 647 423 605T476 468ZM428 468Q428 548 388 579T265 610H146V320H270Q353 320 390 352T428 468Z" />
<glyph unicode="Q" glyph-name="Q" horiz-adv-x="657" d="M592 321Q592 165 530 75T330 -16Q186 -16 126 73T65 321Q65 476 128 566T331 657Q405 657 457 632T538 560T579 455T592 321ZM538 -54L520 -97L314 -67L332 -37L538 -54ZM544 321Q544 464 497 542T330
620Q267 620 224 598T157 534T123 441T113 321Q113 181 161 101T330 21Q392 21 435 43T502 108T534 202T544 321Z" />
<glyph unicode="R" glyph-name="R" horiz-adv-x="558" d="M512 0H456L234 299H146V0H100V647H282Q369 647 425 608T481 480Q481 300 287 300L512 0ZM433 480Q433 610 287 610H146V336H288Q433 336 433 480Z" />
<glyph unicode="S" glyph-name="S" horiz-adv-x="526" d="M453 165Q453 -16 234 -16Q173 -16 70 12L88 54Q176 21 235 21Q304 21 354 53T405 163Q405 190 396 212T373 249T336 278T293 299T243 317Q211 328 191 336T146 360T106 392T81 435T70 494Q70 578 128
617T283 657Q351 657 433 629L415 587Q339 620 277 620Q118 620 118 494Q118 466 129 445T162 409T206 384T261 363Q306 347 331 336T389 302T437 245T453 165Z" />
<glyph unicode="T" glyph-name="T" horiz-adv-x="498" d="M470 609H272V0H226V609H28V647H470V609Z" />
<glyph unicode="U" glyph-name="U" horiz-adv-x="655" d="M555 237Q555 107 502 46T334 -16Q208 -16 154 45T100 239V647H146V249Q146 119 187 70T334 21Q430 21 469 72T509 249V647H555V237Z" />
<glyph unicode="V" glyph-name="V" horiz-adv-x="580" d="M549 647L314 0H276L31 647H82L297 70L501 647H549Z" />
<glyph unicode="W" glyph-name="W" horiz-adv-x="834" d="M797 647L621 0H573L417 546L259 0H209L37 647H85L238 68L396 620H444L600 66L754 647H797Z" />
<glyph unicode="X" glyph-name="X" horiz-adv-x="551" d="M512 0H454L274 301L83 0H33L249 334L60 647H114L278 374L449 647H499L300 341L512 0Z" />
<glyph unicode="Y" glyph-name="Y" horiz-adv-x="532" d="M515 647L295 291V0H249V287L17 647H69L274 332L469 647H515Z" />
<glyph unicode="Z" glyph-name="Z" horiz-adv-x="527" d="M481 605L95 38H473V0H64L46 42L431 609H83V647H463L481 605Z" />
<glyph unicode="[" glyph-name="bracketleft" horiz-adv-x="255" d="M209 -127H84V676H209V642H130V-90H209V-127Z" />
<glyph unicode="\" glyph-name="backslash" horiz-adv-x="230" d="M244 -10H200L-14 658H30L244 -10Z" />
<glyph unicode="]" glyph-name="bracketright" horiz-adv-x="255" d="M171 -125H46V-88H125V644H46V678H171V-125Z" />
<glyph unicode="^" glyph-name="asciicircum" horiz-adv-x="460" d="M426 269H375L230 571L84 269H37L218 647H241L426 269Z" />
<glyph unicode="_" glyph-name="underscore" horiz-adv-x="500" d="M501 -95H-1V-62H501V-95Z" />
<glyph unicode="`" glyph-name="grave" horiz-adv-x="188" d="M169 530H130L19 647H73L169 530Z" />
<glyph unicode="a" glyph-name="a" horiz-adv-x="457" d="M391 0H358Q358 5 351 27T342 58Q324 28 289 9T209 -10Q143 -10 96 22T49 120Q49 196 101 234T291 273H338V315Q338 434 233 434Q164 434 84 395L69 431Q162 467 232 467Q301 467 340 430T379 320V140Q379
116 391 0ZM339 96V239H305Q186 239 140 212T93 121Q93 76 123 50T209 23Q253 23 287 43T339 96Z" />
<glyph unicode="b" glyph-name="b" horiz-adv-x="471" d="M422 231Q422 124 380 57T245 -10Q205 -10 168 10T110 58L97 0H64Q72 77 72 140V657H113V385Q130 416 167 441T250 467Q338 467 380 401T422 231ZM378 229Q378 333 343 383T247 434Q216 434 191 422T149
391T125 358T111 331V99Q158 23 235 23Q378 23 378 229Z" />
<glyph unicode="c" glyph-name="c" horiz-adv-x="415" d="M375 19Q350 7 309 -1T239 -10Q142 -10 96 52T49 225Q49 467 242 467Q299 467 373 438L358 402Q294 434 241 434Q93 434 93 225Q93 23 240 23Q298 23 360 55L375 19Z" />
<glyph unicode="d" glyph-name="d" horiz-adv-x="471" d="M407 0H374L361 58Q341 30 305 10T228 -10H226Q134 -9 92 57T49 231Q49 333 95 400T224 467Q272 467 306 442T358 385V657H399V140Q399 77 407 0ZM360 99V331Q355 345 347 359T323 392T283 422T228 434Q165
434 129 383T93 229Q93 23 236 23Q313 23 360 99Z" />
<glyph unicode="e" glyph-name="e" horiz-adv-x="461" d="M409 219H94Q94 23 239 23Q303 23 380 64L392 27Q315 -10 231 -10Q137 -10 93 55T49 224Q49 267 58 307T86 384T142 444T229 467Q283 467 319 448T375 393T401 316T409 219ZM369 252Q369 344 336 389T229
434Q165 434 132 386T93 252H369Z" />
<glyph unicode="f" glyph-name="f" horiz-adv-x="235" d="M255 636Q182 629 157 602T132 524V457H226V424H132V0H91V424H15V457H91V521Q91 589 130 627T245 672L255 636Z" />
<glyph unicode="g" glyph-name="g" horiz-adv-x="471" d="M439 -68Q439 -130 383 -163T241 -197Q39 -197 39 -72Q39 -33 70 -7T139 28Q75 54 75 100Q75 115 82 129T95 150T115 171Q114 172 109 177T102 185T95 194T87 206T80 220T73 236T67 254T63 276T62 300Q62
323 69 349T94 403T148 449T233 467Q283 467 309 454Q431 464 434 464L419 428H349Q372 412 389 378T407 303Q407 229 366 179T235 129Q213 129 183 136T141 152Q115 124 115 103Q115 80 141 68T251 46Q356 35 397 6T439 -68ZM363 301Q363 365 330 399T235 434Q167
434 137 394T106 298Q106 238 138 200T236 162T332 200T363 301ZM395 -68Q395 -40 371 -24T303 1T178 16Q133 7 108 -18T83 -72Q83 -164 241 -164Q318 -164 356 -138T395 -68Z" />
<glyph unicode="h" glyph-name="h" horiz-adv-x="469" d="M397 0H356V274Q356 353 332 393T241 434Q193 434 157 399T112 331V0H72V657H113V385Q130 418 167 442T248 467Q329 467 363 419T397 296V0Z" />
<glyph unicode="i" glyph-name="i" horiz-adv-x="188" d="M118 579H70V647H118V579ZM115 0H74V457H115V0Z" />
<glyph unicode="j" glyph-name="j" horiz-adv-x="183" d="M113 579H65V647H113V579ZM110 6Q110 -54 82 -88T-12 -140L-24 -103Q28 -92 48 -70T69 -3V457H110V6Z" />
<glyph unicode="k" glyph-name="k" horiz-adv-x="418" d="M400 0H348L113 244V0H72V657H113V265L329 457H376L148 259L400 0Z" />
<glyph unicode="l" glyph-name="l" horiz-adv-x="185" d="M113 0H72V657H113V0Z" />
<glyph unicode="m" glyph-name="m" horiz-adv-x="750" d="M678 0H637V290Q637 320 633 342T618 386T581 421T519 434Q477 434 443 401T393 327V0H352V290Q352 357 323 395T238 434Q196 434 161 403T113 332V0H72V352Q72 366 64 457H97L111 385Q167 467 244 467Q350
467 381 366Q398 394 413 412T458 449T523 467Q678 467 678 292V0Z" />
<glyph unicode="n" glyph-name="n" horiz-adv-x="469" d="M397 0H356V280Q356 315 352 340T336 387T300 422T240 434Q195 434 161 402T113 332V0H72V360Q72 381 69 411T64 457H97L110 385L117 394Q124 404 127 407T138 420T153 434T171 446T192 457T217 464T246
467Q397 467 397 288V0Z" />
<glyph unicode="o" glyph-name="o" horiz-adv-x="477" d="M428 231Q428 -10 239 -10Q49 -10 49 231Q49 299 65 349T125 433T239 467Q428 467 428 231ZM384 231Q384 276 378 310T356 374T311 418T239 434Q162 434 128 379T93 231Q93 23 239 23Q322 23 353 78T384 231Z" />
<glyph unicode="p" glyph-name="p" horiz-adv-x="471" d="M422 226Q422 124 378 57T250 -10Q161 -10 113 56V-180H72V322Q72 394 64 457H97L112 384Q162 467 247 467Q340 467 381 401T422 226ZM378 228Q378 434 239 434Q195 434 160 402T112 331V97Q114 95 123
83T138 66T155 51T179 36T207 27T244 23Q306 23 342 74T378 228Z" />
<glyph unicode="q" glyph-name="q" horiz-adv-x="471" d="M407 457Q399 394 399 322V-180H358V56Q310 -10 221 -10Q137 -10 93 57T49 226Q49 331 93 399T226 467Q267 467 303 442T359 384L374 457H407ZM359 97V331Q347 369 311 401T231 434Q162 434 128 378T93
228Q93 126 129 75T227 23Q251 23 270 27T305 42T327 59T346 80T359 97Z" />
<glyph unicode="r" glyph-name="r" horiz-adv-x="320" d="M307 445L292 409Q258 434 218 434Q204 434 191 427T168 412T149 388T134 364T122 339T113 320V0H72V355Q72 365 64 457H97L110 371Q120 390 128 402T150 431T184 458T225 467Q269 467 307 445Z" />
<glyph unicode="s" glyph-name="s" horiz-adv-x="396" d="M347 122Q347 59 304 25T192 -10Q101 -10 45 18L60 54Q105 35 129 29T196 23Q245 23 274 48T303 121Q303 144 295 160T266 188T230 205T184 221Q152 231 132 239T89 261T55 295T44 343Q44 407 89 437T210
467Q252 467 339 437L324 401Q319 403 307 408T290 416T275 422T259 427T242 431T223 433T201 434Q151 434 120 413T88 346Q88 328 95 315T120 291T152 276T193 262Q218 254 225 252T254 242T285 228T308 211T330 188T341 159T347 122Z" />
<glyph unicode="t" glyph-name="t" horiz-adv-x="263" d="M248 -5L237 -43Q160 -29 122 8T84 110V424H15V457H84V571H125V457H229V424H125V110Q125 61 154 34T248 -5Z" />
<glyph unicode="u" glyph-name="u" horiz-adv-x="462" d="M398 0H365L352 72Q351 71 342 59T328 41T311 24T286 6T255 -5T215 -10Q72 -10 72 169V457H113V177Q113 104 136 64T226 23Q271 23 303 55T349 125V457H390V97Q390 76 393 46T398 0Z" />
<glyph unicode="v" glyph-name="v" horiz-adv-x="465" d="M423 457L248 0H219L42 457H86L236 61L383 457H423Z" />
<glyph unicode="w" glyph-name="w" horiz-adv-x="668" d="M626 457L468 0H430L329 343L222 0H182L42 457H85L205 54L316 411H350L452 57L587 457H626Z" />
<glyph unicode="x" glyph-name="x" horiz-adv-x="428" d="M402 0H347L214 203L72 0H26L190 231L37 457H90L218 266L349 457H394L239 238L402 0Z" />
<glyph unicode="y" glyph-name="y" horiz-adv-x="464" d="M422 457L231 -73Q212 -124 188 -147T109 -190L97 -152Q168 -133 185 -87L225 19L42 457L86 458L246 66L382 457H422Z" />
<glyph unicode="z" glyph-name="z" horiz-adv-x="392" d="M350 421L87 33H340V0H57L42 36L306 424H62V457H335L350 421Z" />
<glyph unicode="{" glyph-name="braceleft" horiz-adv-x="340" d="M296 -118Q233 -116 196 -89T147 -23T130 63T122 149T102 216T48 247V284Q83 285 100 312T119 378T127 464T144 550T193 617T296 647V610Q233 610 202 581T164 506T158 413T143 324T91 264Q129
250 144 209T160 120T167 26T203 -50T296 -81V-118Z" />
<glyph unicode="|" glyph-name="bar" horiz-adv-x="230" d="M135 -166H95V702H135V-166Z" />
<glyph unicode="}" glyph-name="braceright" horiz-adv-x="340" d="M292 247Q256 244 238 217T218 149T210 63T193 -22T145 -89T44 -118V-81Q106 -81 136 -51T172 26T179 120T196 209T249 264Q212 281 198 323T183 413T176 505T139 580T44 610V647Q108 645 146
618T196 550T213 464T220 379T239 312T292 284V247Z" />
<glyph unicode="~" glyph-name="asciitilde" horiz-adv-x="460" d="M436 249Q436 203 404 179T328 154Q288 154 223 190T130 227Q63 227 63 157L24 175Q24 222 54 246T130 270Q165 270 230 234T327 198T378 217T397 267L436 249Z" />
<glyph unicode="&#xa0;" glyph-name="nbspace" horiz-adv-x="230" />
<glyph unicode="&#xa1;" glyph-name="exclamdown" horiz-adv-x="230" d="M145 576H86V647H145V576ZM137 0H95V483H137V0Z" />
<glyph unicode="&#xa2;" glyph-name="cent" horiz-adv-x="405" d="M365 19Q319 -3 253 -9V-99H214V-9Q49 7 49 225Q49 449 214 466V557H253V467Q296 465 363 438L348 402Q294 429 253 433V24Q297 29 350 55L365 19ZM214 25V432Q93 414 93 225Q93 42 214 25Z" />
<glyph unicode="&#xa3;" glyph-name="sterling" horiz-adv-x="460" d="M435 0H49V39H119V347H49V386H119V422Q119 463 127 496T146 553T178 595T215 624T260 644T303 657T347 667Q356 669 361 670L374 626Q367 625 347 621T317 615T290 608T262 599T237 586T213
569T194 546T178 516T169 479T165 432V386H351V347H165V40H435V0Z" />
<glyph unicode="&#xa4;" glyph-name="currency" horiz-adv-x="460" d="M485 630L473 585Q401 620 334 620Q243 620 200 563T143 406H427L417 369H139Q138 354 138 324Q138 298 139 285H395L385 248H142Q153 142 195 82T327 21Q377 21 464 56V7Q387 -16 327 -16Q123
-16 94 248H0L10 285H91Q90 297 90 323Q90 354 91 369H0L10 406H95Q110 521 167 589T334 657Q406 657 485 630Z" />
<glyph unicode="&#xa5;" glyph-name="yen" horiz-adv-x="460" d="M451 647L264 301H415V262H259V181H415V142H259V0H213V142H59V181H213V262H59V301H206L9 647H61L238 337L405 647H451Z" />
<glyph unicode="&#xa6;" glyph-name="brokenbar" horiz-adv-x="230" d="M138 359H92V593H138V359ZM138 -78H92V156H138V-78Z" />
<glyph unicode="&#xa7;" glyph-name="section" horiz-adv-x="460" d="M388 318Q388 282 367 255T313 217Q372 185 372 116Q372 54 328 19T217 -16Q138 -16 78 12L93 51Q124 38 137 33T172 24T219 20Q268 20 297 44T326 115Q326 152 300 175T237 209T162 231T98
267T72 330Q72 412 145 441Q88 470 88 531Q88 594 133 625T244 657Q301 657 368 625L353 586Q321 605 299 613T245 621Q134 621 134 534Q134 505 160 487T223 459T298 436T362 394T388 318ZM342 317Q342 339 335 354T311 379T281 394T239 406T198 419Q118 409 118
333Q118 312 133 296T165 274T217 256T267 240Q342 260 342 317Z" />
<glyph unicode="&#xa8;" glyph-name="dieresis" horiz-adv-x="188" d="M191 584H144V647H191V584ZM44 584H-3V647H44V584Z" />
<glyph unicode="&#xa9;" glyph-name="copyright" horiz-adv-x="720" d="M695 324Q695 183 598 87T360 -10T122 86T25 324T122 561T360 658Q503 658 599 562T695 324ZM656 324Q656 449 570 537T360 625Q235 625 150 537T64 324Q64 201 150 112T360 23T569 112T656
324ZM459 138Q400 119 353 119Q269 119 228 174T187 322Q187 411 227 466T357 522Q404 522 455 506L443 474Q394 494 357 494Q223 494 223 323Q223 147 353 147Q388 147 448 170L459 138Z" />
<glyph unicode="&#xaa;" glyph-name="ordfeminine" horiz-adv-x="460" d="M336 391H311Q311 393 307 405T301 422Q276 385 221 385Q181 385 153 403T125 457Q125 499 157 521T271 544H299V561Q299 593 285 608T236 623Q192 623 146 602L137 628Q192 647 235 647Q277
647 302 627T328 567V468Q328 455 336 391ZM299 452V519H279Q212 519 185 506T158 457Q158 409 221 409Q246 409 267 421T299 452Z" />
<glyph unicode="&#xab;" glyph-name="guillemotleft" horiz-adv-x="340" d="M305 452L208 272L304 92H261L168 270L261 452H305ZM175 452L78 272L174 92H131L38 270L131 452H175Z" />
<glyph unicode="&#xac;" glyph-name="logicalnot" horiz-adv-x="460" d="M440 118H394V299H15V338H440V118Z" />
<glyph unicode="&#xae;" glyph-name="registered" horiz-adv-x="720" d="M695 324Q695 183 598 87T360 -10T122 86T25 324T122 561T360 658Q503 658 599 562T695 324ZM656 324Q656 449 570 537T360 625Q235 625 150 537T64 324Q64 201 150 112T360 23T569 112T656
324ZM511 129H469L325 307H278V129H244V518H362Q418 518 454 494T491 417Q491 369 462 338T365 307L511 129ZM455 379T455 417T434 472T365 489H278V335H366Q416 335 435 357Z" />
<glyph unicode="&#xaf;" glyph-name="overscore" horiz-adv-x="188" d="M203 578H-15V624H203V578Z" />
<glyph unicode="0;" glyph-name="degree" horiz-adv-x="370" d="M320 536T320 479T280 385T184 348T89 385T50 479T89 574T185 613T280 575ZM274 479Q274 519 249 545T185 571T121 545T95 479Q95 443 121 417T184 390T247 416T274 479Z" />
<glyph unicode="1;" glyph-name="plusminus" horiz-adv-x="460" d="M433 251H253V120H207V251H27V291H207V421H253V291H433V251ZM430 2H30V45H430V2Z" />
<glyph unicode="2;" glyph-name="twosuperior" horiz-adv-x="315" d="M270 317H57L46 339Q56 349 96 384T161 443T209 501T233 561Q233 600 213 615T150 631Q113 631 63 607L53 636Q103 657 151 657Q203 657 234 632T266 560Q266 531 245 498T201 443T139
388T89 344H270V317Z" />
<glyph unicode="3;" glyph-name="threesuperior" horiz-adv-x="315" d="M266 400Q266 353 230 331T140 309Q88 309 50 321L61 350Q111 334 142 334Q232 334 232 400Q232 446 202 462T117 479V504Q168 504 195 518T223 572Q223 608 204 619T148 631Q122 631
68 607L57 636Q102 657 148 657Q196 657 226 636T257 573Q257 501 178 492Q266 479 266 400Z" />
<glyph unicode="4;" glyph-name="acute" horiz-adv-x="188" d="M169 647L58 530H19L115 647H169Z" />
<glyph unicode="5;" glyph-name="mu" horiz-adv-x="460" d="M397 0H364L351 72L342 59Q332 46 327 41T310 23T287 6T259 -5T224 -10Q149 -10 112 32V-180H71V457H112V177Q112 104 135 64T225 23Q269 23 301 59T348 135V457H389V97Q389 76 392 46T397 0Z" />
<glyph unicode="6;" glyph-name="paragraph" horiz-adv-x="540" d="M467 -188H421V608H320Q272 608 242 580T212 494Q212 452 241 426T310 388V-188H264V338Q218 340 185 354T135 391T109 437T101 489Q101 647 282 647H467V-188Z" />
<glyph unicode="7;" glyph-name="middot" horiz-adv-x="230" d="M150 252H80V327H150V252Z" />
<glyph unicode="8;" glyph-name="cedilla" horiz-adv-x="188" d="M175 -94Q175 -167 89 -167Q63 -167 5 -159L19 -121Q75 -128 84 -128Q104 -128 118 -120T132 -96T117 -72T52 -64L73 15H112L102 -32Q136 -32 155 -50T175 -94Z" />
<glyph unicode="9;" glyph-name="onesuperior" horiz-adv-x="315" d="M193 313H160V608L90 552L80 581L162 647H193V313Z" />
<glyph unicode="a;" glyph-name="ordmasculine" horiz-adv-x="460" d="M344 527Q344 395 231 395Q117 395 117 527Q117 657 231 657Q344 657 344 527ZM313 527Q313 578 295 605T231 633Q148 633 148 527Q148 476 166 448T231 419Q313 419 313 527Z" />
<glyph unicode="b;" glyph-name="guillemotright" horiz-adv-x="340" d="M302 270L209 92H166L262 272L165 452H209L302 270ZM172 270L79 92H36L132 272L35 452H79L172 270Z" />
<glyph unicode="c;" glyph-name="onequarter" horiz-adv-x="690" d="M584 91H531V0H498V91H354L342 117L503 334H531V117H584V91ZM509 629L142 0H101L465 629H509ZM178 313H145V608L75 552L65 581L147 647H178V313ZM498 117V289L371 117H498Z" />
<glyph unicode="d;" glyph-name="onehalf" horiz-adv-x="690" d="M618 0H405L393 28Q397 32 459 84T551 174T581 245Q581 284 561 299T498 315Q463 315 411 290L401 320Q449 340 499 340Q551 340 582 316T614 244Q614 215 593 182T549 126T487 71T437 27H618V0ZM509
629L147 0H101L463 629H509ZM178 313H145V608L75 552L65 581L147 647H178V313Z" />
<glyph unicode="e;" glyph-name="threequarters" horiz-adv-x="690" d="M609 91H556V0H523V91H379L367 117L528 334H556V117H609V91ZM534 629L171 0H126L488 629H534ZM261 400Q261 353 225 331T135 309Q83 309 45 321L56 350Q106 334 137 334Q227 334 227
400Q227 446 197 462T112 479V504Q163 504 190 518T218 572Q218 608 199 619T143 631Q117 631 63 607L52 636Q98 657 143 657Q191 657 221 636T252 573Q252 501 173 492Q261 479 261 400ZM523 117V289L396 117H523Z" />
<glyph unicode="f;" glyph-name="questiondown" horiz-adv-x="385" d="M263 576H204V647H263V576ZM354 20Q268 -10 218 -10Q51 -10 51 137Q51 170 67 198T107 246T154 286T194 333T211 391V489H257V386Q257 348 241 318T201 268T154 230T114 188T97 137Q97
78 126 53T218 27Q266 27 336 62L354 20Z" />
<glyph unicode="0;" glyph-name="Agrave" horiz-adv-x="608" d="M573 0H521L446 203H162L82 0H35L298 647H329L573 0ZM434 238L311 579L176 238H434ZM398 681H359L248 798H302L398 681Z" />
<glyph unicode="1;" glyph-name="Aacute" horiz-adv-x="608" d="M573 0H521L446 203H162L82 0H35L298 647H329L573 0ZM434 238L311 579L176 238H434ZM385 794L274 677H235L331 794H385Z" />
<glyph unicode="2;" glyph-name="Acircumflex" horiz-adv-x="608" d="M573 0H521L446 203H162L82 0H35L298 647H329L573 0ZM434 238L311 579L176 238H434ZM418 702H378L312 776L244 702H204L288 809H336L418 702Z" />
<glyph unicode="3;" glyph-name="Atilde" horiz-adv-x="608" d="M573 0H521L446 203H162L82 0H35L298 647H329L573 0ZM434 238L311 579L176 238H434ZM437 755Q416 696 363 696Q349 696 318 714T270 732Q238 732 226 687L191 702Q207 738 223 751T271 764Q286
764 317 748T361 731Q389 731 402 770L437 755Z" />
<glyph unicode="4;" glyph-name="Adieresis" horiz-adv-x="608" d="M573 0H521L446 203H162L82 0H35L298 647H329L573 0ZM434 238L311 579L176 238H434ZM410 696H363V759H410V696ZM263 696H216V759H263V696Z" />
<glyph unicode="5;" glyph-name="Aring" horiz-adv-x="608" d="M573 0H521L446 203H162L82 0H35L298 647H329L573 0ZM434 238L311 579L176 238H434ZM395 753Q395 719 371 695T312 671Q278 671 254 695T229 753T253 811T312 835T371 812T395 753ZM363 732T363
754T349 791T312 806Q290 806 275 790T260 754Q260 735 275 719T312 702Q337 702 350 717Z" />
<glyph unicode="6;" glyph-name="AE" horiz-adv-x="855" d="M795 0H508L471 203H199L85 0H35L402 647H786V610H443L492 353H765V316H500L551 37H795V0ZM464 238L403 575L217 238H464Z" />
<glyph unicode="7;" glyph-name="Ccedilla" horiz-adv-x="527" d="M485 12Q416 -13 341 -16L338 -32Q372 -32 391 -50T411 -94Q411 -167 325 -167Q299 -167 241 -159L255 -121Q311 -128 320 -128Q340 -128 354 -120T368 -96T353 -72T288 -64L301 -15Q178 -8
122 82T65 323Q65 379 73 427T99 518T147 591T222 639T327 657Q408 657 478 634L460 592Q395 620 327 620Q113 620 113 324Q113 261 123 209T156 114T221 46T321 21Q385 21 467 54L485 12Z" />
<glyph unicode="8;" glyph-name="Egrave" horiz-adv-x="513" d="M453 0H100V647H444V610H146V353H423V316H146V37H453V0ZM334 682H295L184 799H238L334 682Z" />
<glyph unicode="9;" glyph-name="Eacute" horiz-adv-x="513" d="M453 0H100V647H444V610H146V353H423V316H146V37H453V0ZM380 794L269 677H230L326 794H380Z" />
<glyph unicode="a;" glyph-name="Ecircumflex" horiz-adv-x="513" d="M453 0H100V647H444V610H146V353H423V316H146V37H453V0ZM384 687H344L278 761L210 687H170L254 794H302L384 687Z" />
<glyph unicode="b;" glyph-name="Edieresis" horiz-adv-x="513" d="M453 0H100V647H444V610H146V353H423V316H146V37H453V0ZM370 696H323V759H370V696ZM223 696H176V759H223V696Z" />
<glyph unicode="c;" glyph-name="Igrave" horiz-adv-x="222" d="M136 0H90V647H136V0ZM187 692H148L37 809H90L187 692Z" />
<glyph unicode="d;" glyph-name="Iacute" horiz-adv-x="222" d="M134 0H88V647H134V0ZM188 809L77 692H38L134 809H188Z" />
<glyph unicode="e;" glyph-name="Icircumflex" horiz-adv-x="222" d="M134 0H88V647H134V0ZM218 702H178L112 776L44 702H4L88 809H136L218 702Z" />
<glyph unicode="f;" glyph-name="Idieresis" horiz-adv-x="222" d="M135 0H89V647H135V0ZM208 696H161V759H208V696ZM61 696H14V759H61V696Z" />
<glyph unicode="&#xd0;" glyph-name="Eth" horiz-adv-x="605" d="M540 326Q540 151 469 76T231 0H100V349H29V386H100V647H231Q403 647 471 575T540 326ZM492 325Q492 480 436 545T231 610H146V386H321V349H146V37H240Q371 37 431 109T492 325Z" />
<glyph unicode="&#xd1;" glyph-name="Ntilde" horiz-adv-x="647" d="M547 0H483L140 593V0H100V647H162L503 54V647H547V0ZM429 752Q408 693 355 693Q341 693 310 711T262 729Q230 729 218 684L183 699Q199 735 215 748T263 761Q278 761 309 745T353 728Q381 728
394 767L429 752Z" />
<glyph unicode="&#xd2;" glyph-name="Ograve" horiz-adv-x="657" d="M592 321Q592 165 530 75T330 -16Q186 -16 126 73T65 321Q65 476 128 566T331 657Q405 657 457 632T538 560T579 455T592 321ZM544 321Q544 464 497 542T330 620Q267 620 224 598T157 534T123
441T113 321Q113 181 161 101T330 21Q392 21 435 43T502 108T534 202T544 321ZM384 682H345L234 799H288L384 682Z" />
<glyph unicode="&#xd3;" glyph-name="Oacute" horiz-adv-x="657" d="M592 321Q592 165 530 75T330 -16Q186 -16 126 73T65 321Q65 476 128 566T331 657Q405 657 457 632T538 560T579 455T592 321ZM544 321Q544 464 497 542T330 620Q267 620 224 598T157 534T123
441T113 321Q113 181 161 101T330 21Q392 21 435 43T502 108T534 202T544 321ZM440 794L329 677H290L386 794H440Z" />
<glyph unicode="&#xd4;" glyph-name="Ocircumflex" horiz-adv-x="657" d="M592 321Q592 165 530 75T330 -16Q186 -16 126 73T65 321Q65 476 128 566T331 657Q405 657 457 632T538 560T579 455T592 321ZM544 321Q544 464 497 542T330 620Q267 620 224 598T157 534T123
441T113 321Q113 181 161 101T330 21Q392 21 435 43T502 108T534 202T544 321ZM439 687H399L333 761L265 687H225L309 794H357L439 687Z" />
<glyph unicode="&#xd5;" glyph-name="Otilde" horiz-adv-x="657" d="M592 321Q592 165 530 75T330 -16Q186 -16 126 73T65 321Q65 476 128 566T331 657Q405 657 457 632T538 560T579 455T592 321ZM544 321Q544 464 497 542T330 620Q267 620 224 598T157 534T123
441T113 321Q113 181 161 101T330 21Q392 21 435 43T502 108T534 202T544 321ZM449 752Q428 693 375 693Q361 693 330 711T282 729Q250 729 238 684L203 699Q219 735 235 748T283 761Q298 761 329 745T373 728Q401 728 414 767L449 752Z" />
<glyph unicode="&#xd6;" glyph-name="Odieresis" horiz-adv-x="657" d="M592 321Q592 165 530 75T330 -16Q186 -16 126 73T65 321Q65 476 128 566T331 657Q405 657 457 632T538 560T579 455T592 321ZM544 321Q544 464 497 542T330 620Q267 620 224 598T157 534T123
441T113 321Q113 181 161 101T330 21Q392 21 435 43T502 108T534 202T544 321ZM427 696H380V759H427V696ZM280 696H233V759H280V696Z" />
<glyph unicode="&#xd7;" glyph-name="multiply" horiz-adv-x="460" d="M411 64L379 32L231 181L83 32L51 64L200 212L51 360L83 392L231 243L379 392L411 360L262 212L411 64Z" />
<glyph unicode="&#xd8;" glyph-name="Oslash" horiz-adv-x="657" d="M628 655L542 554Q592 472 592 321Q592 165 530 75T330 -16Q195 -16 130 68L47 -30L16 -1L106 105Q65 184 65 321Q65 476 128 566T331 657Q450 657 516 588L597 684L628 655ZM488 555Q436 620
330 620Q267 620 224 598T157 534T123 441T113 321Q113 211 139 144L488 555ZM544 321Q544 448 511 517L160 103Q213 21 330 21Q392 21 435 43T502 108T534 202T544 321Z" />
<glyph unicode="&#xd9;" glyph-name="Ugrave" horiz-adv-x="655" d="M555 237Q555 107 502 46T334 -16Q208 -16 154 45T100 239V647H146V249Q146 119 187 70T334 21Q430 21 469 72T509 249V647H555V237ZM394 682H355L244 799H298L394 682Z" />
<glyph unicode="&#xda;" glyph-name="Uacute" horiz-adv-x="655" d="M555 237Q555 107 502 46T334 -16Q208 -16 154 45T100 239V647H146V249Q146 119 187 70T334 21Q430 21 469 72T509 249V647H555V237ZM414 797L303 680H264L360 797H414Z" />
<glyph unicode="&#xdb;" glyph-name="Ucircumflex" horiz-adv-x="655" d="M555 237Q555 107 502 46T334 -16Q208 -16 154 45T100 239V647H146V249Q146 119 187 70T334 21Q430 21 469 72T509 249V647H555V237ZM431 687H391L325 761L257 687H217L301 794H349L431 687Z" />
<glyph unicode="&#xdc;" glyph-name="Udieresis" horiz-adv-x="655" d="M555 237Q555 107 502 46T334 -16Q208 -16 154 45T100 239V647H146V249Q146 119 187 70T334 21Q430 21 469 72T509 249V647H555V237ZM430 696H383V759H430V696ZM283 696H236V759H283V696Z" />
<glyph unicode="&#xdd;" glyph-name="Yacute" horiz-adv-x="532" d="M515 647L295 291V0H249V287L17 647H69L274 332L469 647H515ZM373 809L262 692H223L319 809H373Z" />
<glyph unicode="&#xde;" glyph-name="Thorn" horiz-adv-x="460" d="M414 344Q414 245 351 200T186 155H118V0H72V649H118V524H196Q297 524 355 481T414 344ZM368 344Q368 485 202 485H118V197H180Q218 197 247 202T306 222T352 268T368 344Z" />
<glyph unicode="&#xdf;" glyph-name="germandbls" horiz-adv-x="472" d="M421 145Q421 99 409 66T376 13T326 -18T267 -33T202 -37L213 -1Q249 -1 276 4T329 25T368 70T382 147Q382 186 362 220T310 278T250 315T196 337V372Q319 451 319 523Q319 576 287 600T215
624Q157 624 135 594T113 482V0H72V471Q72 569 103 613T215 657Q279 657 319 621T360 520Q360 497 348 473T324 434T288 398T258 374T234 358Q259 347 274 340T321 313T371 273T405 218T421 145Z" />
<glyph unicode="&#xe0;" glyph-name="agrave" horiz-adv-x="457" d="M391 0H358Q358 5 351 27T342 58Q324 28 289 9T209 -10Q143 -10 96 22T49 120Q49 196 101 234T291 273H338V315Q338 434 233 434Q164 434 84 395L69 431Q162 467 232 467Q301 467 340 430T379
320V140Q379 116 391 0ZM339 96V239H305Q186 239 140 212T93 121Q93 76 123 50T209 23Q253 23 287 43T339 96ZM256 530H217L106 647H160L256 530Z" />
<glyph unicode="&#xe1;" glyph-name="aacute" horiz-adv-x="457" d="M391 0H358Q358 5 351 27T342 58Q324 28 289 9T209 -10Q143 -10 96 22T49 120Q49 196 101 234T291 273H338V315Q338 434 233 434Q164 434 84 395L69 431Q162 467 232 467Q301 467 340 430T379
320V140Q379 116 391 0ZM339 96V239H305Q186 239 140 212T93 121Q93 76 123 50T209 23Q253 23 287 43T339 96ZM325 647L214 530H175L271 647H325Z" />
<glyph unicode="&#xe2;" glyph-name="acircumflex" horiz-adv-x="457" d="M391 0H358Q358 5 351 27T342 58Q324 28 289 9T209 -10Q143 -10 96 22T49 120Q49 196 101 234T291 273H338V315Q338 434 233 434Q164 434 84 395L69 431Q162 467 232 467Q301 467 340 430T379
320V140Q379 116 391 0ZM339 96V239H305Q186 239 140 212T93 121Q93 76 123 50T209 23Q253 23 287 43T339 96ZM323 540H283L217 614L149 540H109L193 647H241L323 540Z" />
<glyph unicode="&#xe3;" glyph-name="atilde" horiz-adv-x="457" d="M391 0H358Q358 5 351 27T342 58Q324 28 289 9T209 -10Q143 -10 96 22T49 120Q49 196 101 234T291 273H338V315Q338 434 233 434Q164 434 84 395L69 431Q162 467 232 467Q301 467 340 430T379
320V140Q379 116 391 0ZM339 96V239H305Q186 239 140 212T93 121Q93 76 123 50T209 23Q253 23 287 43T339 96ZM337 611Q316 552 263 552Q249 552 218 570T170 588Q138 588 126 543L91 558Q107 594 123 607T171 620Q186 620 217 604T261 587Q289 587 302 626L337
611Z" />
<glyph unicode="&#xe4;" glyph-name="adieresis" horiz-adv-x="457" d="M391 0H358Q358 5 351 27T342 58Q324 28 289 9T209 -10Q143 -10 96 22T49 120Q49 196 101 234T291 273H338V315Q338 434 233 434Q164 434 84 395L69 431Q162 467 232 467Q301 467 340 430T379
320V140Q379 116 391 0ZM339 96V239H305Q186 239 140 212T93 121Q93 76 123 50T209 23Q253 23 287 43T339 96ZM177 550H129V617H177V550ZM325 550H278V617H325V550Z" />
<glyph unicode="&#xe5;" glyph-name="aring" horiz-adv-x="457" d="M391 0H358Q358 5 351 27T342 58Q324 28 289 9T209 -10Q143 -10 96 22T49 120Q49 196 101 234T291 273H338V315Q338 434 233 434Q164 434 84 395L69 431Q162 467 232 467Q301 467 340 430T379
320V140Q379 116 391 0ZM339 96V239H305Q186 239 140 212T93 121Q93 76 123 50T209 23Q253 23 287 43T339 96ZM303 589Q303 555 279 531T220 507Q186 507 162 531T137 589T161 647T220 671T279 648T303 589ZM271 568T271 590T257 627T220 642Q198 642 183 626T168
590Q168 571 183 555T220 538Q245 538 258 553Z" />
<glyph unicode="&#xe6;" glyph-name="ae" horiz-adv-x="749" d="M698 219H382Q382 23 527 23Q590 23 663 62L675 25Q602 -10 519 -10Q411 -10 368 84Q338 36 301 13T209 -10Q142 -10 96 22T49 120Q49 196 101 234T291 273H342V315Q342 434 233 434Q164 434 84
395L69 431Q162 467 232 467Q344 467 371 377Q414 467 516 467Q619 467 658 401T698 219ZM657 252Q657 344 624 389T517 434Q453 434 420 386T381 252H657ZM342 103V239H305Q186 239 140 212T93 121Q93 76 122 50T209 23Q251 23 288 46T342 103Z" />
<glyph unicode="&#xe7;" glyph-name="ccedilla" horiz-adv-x="405" d="M350 12Q304 -4 257 -9L252 -32Q286 -32 305 -51T325 -94Q325 -124 304 -144T239 -165Q198 -165 155 -159V-122Q211 -129 234 -129Q254 -129 269 -120T284 -96Q284 -80 268 -72T202 -63L217
-9Q135 -1 92 61T49 225Q49 338 97 401T241 464Q295 464 347 443V399Q302 433 241 433Q162 433 127 377T91 225Q91 138 128 81T240 24Q295 24 350 59V12Z" />
<glyph unicode="&#xe8;" glyph-name="egrave" horiz-adv-x="461" d="M409 219H94Q94 23 239 23Q303 23 380 64L392 27Q315 -10 231 -10Q137 -10 93 55T49 224Q49 267 58 307T86 384T142 444T229 467Q283 467 319 448T375 393T401 316T409 219ZM369 252Q369 344
336 389T229 434Q165 434 132 386T93 252H369ZM273 530H234L123 647H177L273 530Z" />
<glyph unicode="&#xe9;" glyph-name="eacute" horiz-adv-x="461" d="M409 219H94Q94 23 239 23Q303 23 380 64L392 27Q315 -10 231 -10Q137 -10 93 55T49 224Q49 267 58 307T86 384T142 444T229 467Q283 467 319 448T375 393T401 316T409 219ZM369 252Q369 344
336 389T229 434Q165 434 132 386T93 252H369ZM309 647L198 530H159L255 647H309Z" />
<glyph unicode="&#xea;" glyph-name="ecircumflex" horiz-adv-x="461" d="M409 219H94Q94 23 239 23Q303 23 380 64L392 27Q315 -10 231 -10Q137 -10 93 55T49 224Q49 267 58 307T86 384T142 444T229 467Q283 467 319 448T375 393T401 316T409 219ZM369 252Q369
344 336 389T229 434Q165 434 132 386T93 252H369ZM331 540H291L225 614L157 540H117L201 647H249L331 540Z" />
<glyph unicode="&#xeb;" glyph-name="edieresis" horiz-adv-x="461" d="M409 219H94Q94 23 239 23Q303 23 380 64L392 27Q315 -10 231 -10Q137 -10 93 55T49 224Q49 267 58 307T86 384T142 444T229 467Q283 467 319 448T375 393T401 316T409 219ZM369 252Q369
344 336 389T229 434Q165 434 132 386T93 252H369ZM331 564H284V627H331V564ZM184 564H137V627H184V564Z" />
<glyph unicode="&#xec;" glyph-name="igrave" horiz-adv-x="188" d="M168 530H129L18 647H72L168 530ZM115 0H74V457H115V0Z" />
<glyph unicode="&#xed;" glyph-name="iacute" horiz-adv-x="188" d="M170 647L59 530H20L116 647H170ZM115 0H74V457H115V0Z" />
<glyph unicode="&#xee;" glyph-name="icircumflex" horiz-adv-x="188" d="M201 540H161L95 614L27 540H-13L71 647H119L201 540ZM113 0H72V457H113V0Z" />
<glyph unicode="&#xef;" glyph-name="idieresis" horiz-adv-x="188" d="M191 574H144V637H191V574ZM44 574H-3V637H44V574ZM116 0H75V457H116V0Z" />
<glyph unicode="&#xf0;" glyph-name="eth" horiz-adv-x="460" d="M415 283Q415 221 408 173T380 80T320 11T222 -14Q140 -14 92 48T44 196Q44 286 90 340T222 395Q273 395 311 363T373 281Q373 486 259 566L168 505L129 528L220 589Q176 610 118 622L98 668Q196
649 257 614L340 670L379 647L294 590Q415 498 415 283ZM364 246Q357 263 348 279T321 315T278 347T220 359Q92 359 92 196Q92 118 127 70T221 22Q295 22 329 73T364 246Z" />
<glyph unicode="&#xf1;" glyph-name="ntilde" horiz-adv-x="469" d="M397 0H356V280Q356 315 352 340T336 387T300 422T240 434Q195 434 161 402T113 332V0H72V360Q72 381 69 411T64 457H97L110 385L117 394Q124 404 127 407T138 420T153 434T171 446T192 457T217
464T246 467Q397 467 397 288V0ZM365 611Q344 552 291 552Q277 552 246 570T198 588Q166 588 154 543L119 558Q135 594 151 607T199 620Q214 620 245 604T289 587Q317 587 330 626L365 611Z" />
<glyph unicode="&#xf2;" glyph-name="ograve" horiz-adv-x="477" d="M428 231Q428 -10 239 -10Q49 -10 49 231Q49 299 65 349T125 433T239 467Q428 467 428 231ZM384 231Q384 276 378 310T356 374T311 418T239 434Q162 434 128 379T93 231Q93 23 239 23Q322 23
353 78T384 231ZM295 530H256L145 647H199L295 530Z" />
<glyph unicode="&#xf3;" glyph-name="oacute" horiz-adv-x="477" d="M428 231Q428 -10 239 -10Q49 -10 49 231Q49 299 65 349T125 433T239 467Q428 467 428 231ZM384 231Q384 276 378 310T356 374T311 418T239 434Q162 434 128 379T93 231Q93 23 239 23Q322 23
353 78T384 231ZM321 647L210 530H171L267 647H321Z" />
<glyph unicode="&#xf4;" glyph-name="ocircumflex" horiz-adv-x="477" d="M428 231Q428 -10 239 -10Q49 -10 49 231Q49 299 65 349T125 433T239 467Q428 467 428 231ZM384 231Q384 276 378 310T356 374T311 418T239 434Q162 434 128 379T93 231Q93 23 239 23Q322
23 353 78T384 231ZM347 540H307L241 614L173 540H133L217 647H265L347 540Z" />
<glyph unicode="&#xf5;" glyph-name="otilde" horiz-adv-x="477" d="M428 231Q428 -10 239 -10Q49 -10 49 231Q49 299 65 349T125 433T239 467Q428 467 428 231ZM384 231Q384 276 378 310T356 374T311 418T239 434Q162 434 128 379T93 231Q93 23 239 23Q322 23
353 78T384 231ZM349 611Q328 552 275 552Q261 552 230 570T182 588Q150 588 138 543L103 558Q119 594 135 607T183 620Q198 620 229 604T273 587Q301 587 314 626L349 611Z" />
<glyph unicode="&#xf6;" glyph-name="odieresis" horiz-adv-x="477" d="M428 231Q428 -10 239 -10Q49 -10 49 231Q49 299 65 349T125 433T239 467Q428 467 428 231ZM384 231Q384 276 378 310T356 374T311 418T239 434Q162 434 128 379T93 231Q93 23 239 23Q322
23 353 78T384 231ZM330 564H283V627H330V564ZM183 564H136V627H183V564Z" />
<glyph unicode="&#xf7;" glyph-name="divide" horiz-adv-x="460" d="M259 363H203V432H259V363ZM430 196H30V239H430V196ZM259 20H203V89H259V20Z" />
<glyph unicode="&#xf8;" glyph-name="oslash" horiz-adv-x="477" d="M474 441L405 367Q428 312 428 231Q428 -10 239 -10Q153 -10 104 42L44 -21L12 9L79 79Q49 139 49 231Q49 299 65 349T125 433T239 467Q335 467 382 406L442 471L474 441ZM354 376Q319 434 239
434Q162 434 128 379T93 231Q93 160 110 112L354 376ZM384 231Q384 291 373 332L131 71Q166 23 239 23Q322 23 353 78T384 231Z" />
<glyph unicode="&#xf9;" glyph-name="ugrave" horiz-adv-x="462" d="M289 530H250L139 647H193L289 530ZM398 0H365L352 72Q351 71 342 59T328 41T311 24T286 6T255 -5T215 -10Q72 -10 72 169V457H113V177Q113 104 136 64T226 23Q271 23 303 55T349 125V457H390V97Q390
76 393 46T398 0Z" />
<glyph unicode="&#xfa;" glyph-name="uacute" horiz-adv-x="462" d="M398 0H365L352 72Q351 71 342 59T328 41T311 24T286 6T255 -5T215 -10Q72 -10 72 169V457H113V177Q113 104 136 64T226 23Q271 23 303 55T349 125V457H390V97Q390 76 393 46T398 0ZM313 647L202
530H163L259 647H313Z" />
<glyph unicode="&#xfb;" glyph-name="ucircumflex" horiz-adv-x="462" d="M398 0H365L352 72Q351 71 342 59T328 41T311 24T286 6T255 -5T215 -10Q72 -10 72 169V457H113V177Q113 104 136 64T226 23Q271 23 303 55T349 125V457H390V97Q390 76 393 46T398 0ZM341
540H301L235 614L167 540H127L211 647H259L341 540Z" />
<glyph unicode="&#xfc;" glyph-name="udieresis" horiz-adv-x="462" d="M398 0H365L352 72Q351 71 342 59T328 41T311 24T286 6T255 -5T215 -10Q72 -10 72 169V457H113V177Q113 104 136 64T226 23Q271 23 303 55T349 125V457H390V97Q390 76 393 46T398 0ZM328
564H281V627H328V564ZM181 564H134V627H181V564Z" />
<glyph unicode="&#xfd;" glyph-name="yacute" horiz-adv-x="464" d="M422 457L231 -73Q212 -124 188 -147T109 -190L97 -152Q168 -133 185 -87L225 19L42 457L86 458L246 66L382 457H422ZM325 647L214 530H175L271 647H325Z" />
<glyph unicode="&#xfe;" glyph-name="thorn" horiz-adv-x="471" d="M422 231Q422 124 380 57T245 -10Q205 -10 168 10T110 58L97 -180H64Q72 -103 72 140V657H113V385Q130 416 167 441T250 467Q338 467 380 401T422 231ZM378 229Q378 333 343 383T247 434Q216
434 191 422T149 391T125 358T111 331V99Q158 23 235 23Q378 23 378 229Z" />
<glyph unicode="&#xff;" glyph-name="ydieresis" horiz-adv-x="464" d="M422 457L231 -73Q212 -124 188 -147T109 -190L97 -152Q168 -133 185 -87L225 19L42 457L86 458L246 66L382 457H422ZM331 565H285V627H331V565ZM186 565H140V627H186V565Z" />
</font>
</defs>
</svg>
